<svg height="450pt" preserveAspectRatio="xMidYMid meet" viewBox="0 0 1000 450" width="1000pt" xmlns="http://www.w3.org/2000/svg"><g transform="matrix(.1 0 0 -.1 0 450)"><path d="m2548 2268c-433-1030-790-1881-794-1890-6-17 11-18 262-18h269l525 1270c289 699 527 1270 530 1270s241-571 530-1268l525-1267 274-3c257-2 273-1 268 15-13 47-1587 3758-1594 3760-5 2-362-840-795-1869z"/><path d="m5861 2258c-435-1036-791-1886-791-1891 0-4 120-6 267-5l267 3 525 1267c288 697 527 1266 530 1264 4-3 242-574 531-1270l525-1266h274c256 0 273 1 267 17-43 113-1591 3763-1596 3763-4 0-363-847-799-1882z"/><path d="m340 3855v-255h390 390v-1620-1620h260 260v1620 1620l393 2 392 3v250 250l-1042 3-1043 2z"/><path d="m8360 2235v-1875h650 650v255 255h-390-390l-2 1618-3 1617-257 3-258 2z"/></g></svg>