<?xml version="1.0" encoding="UTF-8"?><svg id="Layer_1" xmlns="http://www.w3.org/2000/svg" xmlns:xlink="http://www.w3.org/1999/xlink" viewBox="0 0 36 36"><defs><mask id="mask" x="-134" y="-126" width="292" height="344" maskUnits="userSpaceOnUse"><g id="mask0_980_7248"><rect width="36" height="36" rx="4" ry="4" fill="#fff"/></g></mask></defs><rect width="36" height="36" rx="4" ry="4" fill="#cdeaff"/><g fill="none" mask="url(#mask)"><path d="m-5.43-111.83l26.3.05v51.01h-10.71v-41.41H-5.43v-9.65Zm40.36.05h-9.53v9.6h9.53v-9.6Zm-29.36,14.16H-5.13v51.01l26.3.05v-9.65H5.57v-41.41Zm-24.77,51.01h9.53v-9.6h-9.53v9.6Zm-1.5-28.33h10.71v-51.01l-26.3-.05v9.65h15.59v41.41ZM4.07-125.95H-5.46v9.6H4.07v-9.6Zm-29.36,14.16h-10.71v50.99l26.3.05v-9.65h-15.59v-41.41h0Zm-15.24,41.41h-9.53v9.6h9.53v-9.6Zm92.06,27.75h-15.59v-41.42h-10.71v51.01l26.3.05v-9.65h0Zm-40.36,0v9.6h9.53v-9.6h-9.53Zm29.68-4.21h10.71v-51.02l-26.3-.05v9.65h15.59v41.41h0Zm24.77-51.01h-9.53v9.6h9.53v-9.6ZM-22.89-28.37h-10.71V22.64l26.3.05v-9.65h-15.59V-28.37Zm-15.24,51.01v-9.6h-9.53v9.6h9.53Zm4.24-55.57h15.59V8.48H-7.59v-51.02l-26.3-.05v9.65h0ZM6.47-42.52H-3.05v9.6H6.47v-9.6ZM23.57,27.21H7.97V-14.2H-2.73v51.01l26.3.05v-9.65Zm-40.36,9.6H-7.27v-9.6h-9.53v9.6ZM-3.03-18.75h15.59V22.65h10.71V-28.35l-26.3-.05v9.65Zm40.36-9.6h-9.53v9.6h9.53v-9.6ZM-48.66-5.1h10.71v-51.01l-26.3-.05v9.65h15.59V-5.1Zm15.24-51.01v9.6h9.53v-9.6h-9.53ZM-37.97-.89h-15.59v-41.41h-10.71V8.71l26.3.05V-.89Zm-30.83,0h-9.53v9.6h9.53V-.89ZM86.97-60.04h15.59V-18.63h10.71v-51.01l-26.3-.05v9.65Zm40.36-9.6h-9.53v9.6h9.53v-9.6Zm-13.77,55.57h-15.59v-41.41h-10.71V-4.48l26.3.05v-9.65Zm-40.36,9.6h9.53v-9.6h-9.53V-4.48Zm-1.5-28.33h10.71v-51.01l-26.3-.05v9.65h15.59v41.41Zm24.77-51.01h-9.53v9.6h9.53v-9.6Zm-29.36,14.16h-10.71V-18.65l26.3.05v-9.65h-15.59v-41.41Zm-24.77,51.01h9.53v-9.6h-9.53v9.6Zm86-23.26h-10.71V9.1l26.3.05V-.5h-15.59v-41.41Zm-15.24,51.01V-.5h-9.53v9.6h9.53Zm4.55-55.22h15.59V-4.71h10.71v-51.02l-26.3-.05v9.65h0Zm30.83-9.6v9.6h9.53v-9.6h-9.53ZM69.5,13.77h-10.71v51.01l26.3.05v-9.65h-15.59V13.77Zm-15.24,51.01v-9.6h-9.53v9.6h9.53Zm4.24-55.57h15.59v41.41h10.71V-.39l-26.3-.05v9.65ZM98.85-.39h-9.53v9.6h9.53V-.39Zm1.5,28.33h-10.71v51.01l26.3.05v-9.65h-15.59V27.94Zm-24.77,51.01h9.53v-9.6h-9.53v9.6Zm29.36-14.16h10.71V13.78l-26.3-.05v9.65h15.59v41.41Zm15.24-41.41h9.53v-9.6h-9.53v9.6ZM54.41-13.97l-26.3-.05V-4.37h15.59v41.41h10.71V-13.97Zm4.54,0V-4.37h9.53v-9.6h-9.53Zm-4.55,55.22h-15.59V-.16h-10.71v51.01l26.3.05v-9.65Zm-30.83,9.6v-9.6h-9.53v9.6h9.53Zm-69.05,27.39h10.71V27.23l-26.3-.05v9.65h15.59v41.41Zm15.24-51.01v9.6h9.53v-9.6h-9.53Zm-4.24,55.57h-15.59v-41.41h-10.71v51.01l26.3.05v-9.65Zm-40.36,9.6h9.53v-9.6h-9.53v9.6Zm-1.5-28.33h10.71V13.05l-26.3-.05v9.65h15.59v41.41ZM-51.57,13.05h-9.53v9.6h9.53v-9.6Zm-13.77,55.57h-15.59V27.21h-10.71v51.01l26.3.05v-9.65Zm-30.83,0h-9.53v9.6h9.53v-9.6ZM-4.11,96.37h-15.59v-41.41h-10.71v51.01l26.3.05v-9.65Zm-30.83,9.6v-9.6h-9.53v9.6h9.53Zm30.85-13.81v-51.01l-26.3-.05v9.65h15.59v41.41H-4.1Zm14.06-41.41v-9.6H.43v9.6h9.53Zm-72.91,101.29h-15.59v-41.41h-10.71v51.01l26.3.05v-9.65Zm-40.36,9.6h9.53v-9.6h-9.53v9.6Zm29.36-14.16h10.71v-51.01l-26.3-.05v9.65h15.59v41.41Zm24.77-51.01h-9.53v9.6h9.53v-9.6Zm1.5,28.33h-10.71v51.01l26.3.05v-9.65h-15.59v-41.41Zm-24.77,51.01h9.53v-9.6h-9.53v9.6Zm29.36-14.16h10.71v-51.01l-26.3-.05v9.65h15.59v41.41Zm24.77-51.01h-9.53v9.6h9.53v-9.6Zm-101.59-18.15h15.59v41.41h10.71v-51.01l-26.3-.05v9.65Zm40.36,0v-9.6h-9.53v9.6h9.53Zm-29.68,4.21h-10.71v51.01l26.3.05v-9.65h-15.59v-41.41Zm-24.77,51.01h9.53v-9.6h-9.53v9.6Zm180.89-27.35h10.71v-51.01l-26.3-.05v9.65h15.59v41.41Zm24.77-41.41v-9.6h-9.53v9.6h9.53Zm-13.77,45.97h-15.59v-41.41h-10.71v51.01l26.3.05v-9.65Zm-40.36,9.6h9.53v-9.6h-9.53v9.6Zm-1.5-28.33h10.71v-51.01l-26.3-.05v9.65h15.59v41.41Zm24.77-51.01h-9.53v9.6h9.53v-9.6Zm-13.77,55.57h-15.59v-41.41H.73v51.01l26.3.05v-9.65Zm-40.36,9.6H-3.81v-9.6h-9.53v9.6Zm86-23.26h-10.71v51.01l26.3.05v-9.65h-15.59v-41.41Zm-15.24,51.01v-9.6h-9.53v9.6h9.53Zm4.55-55.22h15.59v41.41h10.71v-51.01l-26.3-.05v9.65Zm30.83,0h9.53v-9.6h-9.53v9.6Zm-63.39,101.29h-15.59v-41.41H3.12v51.01l26.3.05v-9.65Zm-40.36,9.6H-1.42v-9.6h-9.53v9.6Zm29.36-14.16h10.71v-51.01l-26.3-.05v9.65h15.59v41.41Zm24.77-51.01h-9.53v9.6h9.53v-9.6Zm1.5,28.33h-10.71v51.01l26.3.05v-9.65h-15.59v-41.41Zm-24.77,51.01h9.53v-9.6h-9.53v9.6Zm29.36-14.16h10.71v-51.01l-26.3-.05v9.65h15.59v41.41Zm15.24-41.41h9.53v-9.6h-9.53v9.6Zm-92.06-27.75h15.59v41.41H-1.24v-51.01l-26.3-.05v9.65Zm40.36,0v-9.6H3.29v9.6h9.53Zm-29.68,4.21h-10.71v51.01l26.3.05v-9.65h-15.59v-41.41Zm-24.77,51.01h9.53v-9.6h-9.53v9.6Z" fill="#232d7c"/></g></svg>