<?xml version="1.0" encoding="UTF-8"?><svg id="Layer_1" xmlns="http://www.w3.org/2000/svg" xmlns:xlink="http://www.w3.org/1999/xlink" viewBox="0 0 36 36"><defs><mask id="mask" x="-118" y="-108" width="292" height="344" maskUnits="userSpaceOnUse"><g id="mask0_980_12642"><rect width="36" height="36" rx="4" ry="4" fill="#fff"/></g></mask></defs><rect width="36" height="36" rx="4" ry="4" fill="#cdeaff"/><g fill="none" mask="url(#mask)"><path d="m10.57-93.83l26.3.05v51.01h-10.71v-41.41h-15.59v-9.65Zm40.36.05h-9.53v9.6h9.53v-9.6Zm-29.36,14.16h-10.71V-28.61l26.3.05v-9.65h-15.59v-41.41ZM-3.2-28.61H6.33v-9.6H-3.2v9.6Zm-1.5-28.33H6.01v-51.01l-26.3-.05v9.65H-4.7v41.41Zm24.77-51.01h-9.53v9.6h9.53v-9.6Zm-29.36,14.16h-10.71v50.99l26.3.05v-9.65h-15.59v-41.41h0Zm-15.24,41.41h-9.53v9.6h9.53v-9.6Zm92.06,27.75h-15.59v-41.42h-10.71V-15.05l26.3.05v-9.65h0Zm-40.36,0v9.6h9.53v-9.6h-9.53Zm29.68-4.21h10.71v-51.02l-26.3-.05v9.65h15.59V-28.85h0Zm24.77-51.01h-9.53v9.6h9.53v-9.6ZM-6.89-10.37h-10.71v51.01l26.3.05v-9.65H-6.89V-10.37Zm-15.24,51.01v-9.6h-9.53v9.6h9.53Zm4.24-55.57H-2.3V26.48h10.71V-24.54l-26.3-.05v9.65h0Zm40.36-9.6h-9.53v9.6h9.53v-9.6Zm17.09,69.74h-15.59V3.8h-10.71v51.01l26.3.05v-9.65ZM-.79,54.81h9.53v-9.6H-.79v9.6ZM12.97-.75h15.59v41.41h10.71V-10.35l-26.3-.05V-.75Zm40.36-9.6h-9.53V-.75h9.53v-9.6ZM-32.66,12.9h10.71v-51.01l-26.3-.05v9.65h15.59V12.9Zm15.24-51.01v9.6H-7.89v-9.6h-9.53Zm-4.55,55.22h-15.59V-24.3h-10.71V26.71l26.3.05v-9.65Zm-30.83,0h-9.53v9.6h9.53v-9.6ZM102.97-42.04h15.59V-.63h10.71v-51.01l-26.3-.05v9.65Zm40.36-9.6h-9.53v9.6h9.53v-9.6Zm-13.77,55.57h-15.59v-41.41h-10.71V13.52l26.3.05V3.92Zm-40.36,9.6h9.53V3.92h-9.53v9.6Zm-1.5-28.33h10.71v-51.01l-26.3-.05v9.65h15.59V-14.8Zm24.77-51.01h-9.53v9.6h9.53v-9.6Zm-29.36,14.16h-10.71V-.65l26.3.05v-9.65h-15.59v-41.41ZM58.34-.65h9.53v-9.6h-9.53V-.65Zm86-23.26h-10.71V27.1l26.3.05v-9.65h-15.59V-23.91Zm-15.24,51.01v-9.6h-9.53v9.6h9.53Zm4.55-55.22h15.59V13.29h10.71v-51.02l-26.3-.05v9.65h0Zm30.83-9.6v9.6h9.53v-9.6h-9.53ZM85.5,31.77h-10.71v51.01l26.3.05v-9.65h-15.59V31.77Zm-15.24,51.01v-9.6h-9.53v9.6h9.53Zm4.24-55.57h15.59v41.41h10.71V17.61l-26.3-.05v9.65Zm40.36-9.6h-9.53v9.6h9.53v-9.6Zm1.5,28.33h-10.71v51.01l26.3.05v-9.65h-15.59v-41.41Zm-24.77,51.01h9.53v-9.6h-9.53v9.6Zm29.36-14.16h10.71V31.78l-26.3-.05v9.65h15.59v41.41Zm15.24-41.41h9.53v-9.6h-9.53v9.6ZM70.41,4.03l-26.3-.05v9.65h15.59v41.41h10.71V4.03Zm4.54,0v9.6h9.53V4.03h-9.53Zm-4.55,55.22h-15.59V17.84h-10.71v51.01l26.3.05v-9.65Zm-30.83,9.6v-9.6h-9.53v9.6h9.53Zm-69.05,27.39h10.71v-51.01l-26.3-.05v9.65h15.59v41.41Zm15.24-51.01v9.6H-4.71v-9.6h-9.53Zm-4.24,55.57h-15.59v-41.41h-10.71v51.01l26.3.05v-9.65Zm-40.36,9.6h9.53v-9.6h-9.53v9.6Zm-1.5-28.33h10.71V31.05l-26.3-.05v9.65h15.59v41.41Zm24.77-51.01h-9.53v9.6h9.53v-9.6Zm-13.77,55.57h-15.59v-41.41h-10.71v51.01l26.3.05v-9.65Zm-30.83,0h-9.53v9.6h9.53v-9.6ZM11.89,114.37H-3.71v-41.41h-10.71v51.01l26.3.05v-9.65Zm-30.83,9.6v-9.6h-9.53v9.6h9.53Zm30.85-13.81v-51.01l-26.3-.05v9.65H1.19v41.41h10.71Zm14.06-41.41v-9.6h-9.53v9.6h9.53Zm-72.91,101.29h-15.59v-41.41h-10.71v51.01l26.3.05v-9.65Zm-40.36,9.6h9.53v-9.6h-9.53v9.6Zm29.36-14.16h10.71v-51.01l-26.3-.05v9.65h15.59v41.41Zm24.77-51.01h-9.53v9.6h9.53v-9.6Zm1.5,28.33h-10.71v51.01l26.3.05v-9.65h-15.59v-41.41Zm-24.77,51.01h9.53v-9.6h-9.53v9.6Zm29.36-14.16h10.71v-51.01l-26.3-.05v9.65h15.59v41.41ZM-2.32,128.65h-9.53v9.6H-2.32v-9.6Zm-101.59-18.15h15.59v41.41h10.71v-51.01l-26.3-.05v9.65Zm40.36,0v-9.6h-9.53v9.6h9.53Zm-29.68,4.21h-10.71v51.01l26.3.05v-9.65h-15.59v-41.41Zm-24.77,51.01h9.53v-9.6h-9.53v9.6Zm180.89-27.35h10.71v-51.01l-26.3-.05v9.65h15.59v41.41Zm24.77-41.41v-9.6h-9.53v9.6h9.53Zm-13.77,45.97h-15.59v-41.41h-10.71v51.01l26.3.05v-9.65Zm-40.36,9.6h9.53v-9.6h-9.53v9.6Zm-1.5-28.33h10.71v-51.01l-26.3-.05v9.65h15.59v41.41Zm24.77-51.01h-9.53v9.6h9.53v-9.6Zm-13.77,55.57h-15.59v-41.41h-10.71v51.01l26.3.05v-9.65Zm-40.36,9.6h9.53v-9.6H2.67v9.6Zm86-23.26h-10.71v51.01l26.3.05v-9.65h-15.59v-41.41Zm-15.24,51.01v-9.6h-9.53v9.6h9.53Zm4.55-55.22h15.59v41.41h10.71v-51.01l-26.3-.05v9.65Zm30.83,0h9.53v-9.6h-9.53v9.6Zm-63.39,101.29h-15.59v-41.41h-10.71v51.01l26.3.05v-9.65Zm-40.36,9.6h9.53v-9.6H5.06v9.6Zm29.36-14.16h10.71v-51.01l-26.3-.05v9.65h15.59v41.41Zm24.77-51.01h-9.53v9.6h9.53v-9.6Zm1.5,28.33h-10.71v51.01l26.3.05v-9.65h-15.59v-41.41Zm-24.77,51.01h9.53v-9.6h-9.53v9.6Zm29.36-14.16h10.71v-51.01l-26.3-.05v9.65h15.59v41.41Zm15.24-41.41h9.53v-9.6h-9.53v9.6Zm-92.06-27.75H4.05v41.41h10.71v-51.01l-26.3-.05v9.65Zm40.36,0v-9.6h-9.53v9.6h9.53Zm-29.68,4.21h-10.71v51.01l26.3.05v-9.65H-.86v-41.41Zm-24.77,51.01h9.53v-9.6h-9.53v9.6Z" fill="#232d7c"/></g></svg>