<?xml version="1.0" encoding="UTF-8"?><svg id="Layer_1" xmlns="http://www.w3.org/2000/svg" xmlns:xlink="http://www.w3.org/1999/xlink" viewBox="0 0 36 36"><defs><mask id="mask" x="-107" y="-258" width="306" height="360" maskUnits="userSpaceOnUse"><g id="mask0_980_7249"><rect width="36" height="36" rx="4" ry="4" fill="#fff"/></g></mask></defs><rect width="36" height="36" rx="4" ry="4" fill="#b3dfff"/><g fill="none" mask="url(#mask)"><path d="m27.73-243.17l27.56.06v53.38h-11.22v-43.34h-16.34v-10.1Zm42.3.06h-9.98v10.04h9.98v-10.04Zm-30.77,14.82h-11.22v53.38l27.56.06v-10.1h-16.34v-43.33Zm-25.96,53.38h9.98v-10.04h-9.98v10.04Zm-1.57-29.64h11.22v-53.38l-27.56-.06v10.1H11.73v43.33Zm25.96-53.38h-9.98v10.05h9.98v-10.05Zm-30.77,14.82H-4.3v53.37l27.56.06v-10.1H6.92v-43.33h0Zm-15.97,43.33h-9.98v10.05h9.98v-10.05Zm96.47,29.04h-16.34v-43.35h-11.22v53.38l27.56.06v-10.1h0Zm-42.3,0v10.05h9.98v-10.05h-9.98Zm31.1-4.4h11.22v-53.39l-27.56-.06v10.1h16.34v43.34h0Zm25.96-53.38h-9.98v10.05h9.98v-10.05ZM9.44-155.83H-1.78v53.38l27.56.06v-10.1H9.44v-43.33Zm-15.97,53.38v-10.05h-9.98v10.05H-6.53Zm4.44-58.15H14.25v43.33h11.22v-53.4l-27.56-.06v10.1h0Zm42.3-10.05h-9.98v10.05h9.98v-10.05Zm17.91,72.98h-16.34v-43.33h-11.22v53.38l27.56.06v-10.1Zm-42.3,10.05h9.98v-10.05h-9.98v10.05Zm14.43-58.15h16.34v43.33h11.22v-53.38l-27.56-.06v10.1Zm42.3-10.05h-9.98v10.05h9.98v-10.05Zm-90.12,24.34H-6.35v-53.38l-27.56-.06v10.1h16.34v43.33ZM-1.6-184.85v10.05h9.98v-10.05H-1.6Zm-4.77,57.78h-16.34v-43.33h-11.22v53.38l27.56.06v-10.1Zm-32.31,0h-9.98v10.05h9.98v-10.05Zm163.24-61.91h16.34v43.33h11.22v-53.38l-27.56-.06v10.1Zm42.3-10.05h-9.98v10.05h9.98v-10.05Zm-14.43,58.15h-16.34v-43.34h-11.22v53.38l27.56.06v-10.1Zm-42.3,10.05h9.98v-10.05h-9.98v10.05Zm-1.58-29.64h11.22v-53.38l-27.56-.06v10.1h16.34v43.34Zm25.96-53.38h-9.98v10.04h9.98v-10.04Zm-30.77,14.82h-11.22v53.38l27.56.06v-10.1h-16.34v-43.33Zm-25.96,53.38h9.98v-10.05h-9.98v10.05Zm90.12-24.34h-11.22v53.38l27.56.06v-10.1h-16.34v-43.33Zm-15.97,53.38v-10.05h-9.98v10.05h9.98Zm4.77-57.78h16.34v43.33h11.22v-53.39l-27.56-.06v10.1h0Zm32.31-10.05v10.05h9.98v-10.05h-9.98Zm-82.76,72.71h-11.22v53.38l27.56.06v-10.1h-16.34v-43.33Zm-15.97,53.38v-10.05h-9.98v10.05h9.98Zm4.44-58.15h16.34v43.33h11.22v-53.38l-27.56-.06v10.1Zm42.3-10.04h-9.98v10.04h9.98v-10.04Zm1.57,29.64h-11.22v53.38l27.56.06v-10.1h-16.34v-43.33Zm-25.96,53.38h9.98v-10.05h-9.98v10.05Zm30.77-14.82h11.22v-53.38l-27.56-.06v10.1h16.34v43.33Zm15.97-43.33h9.98v-10.05h-9.98v10.05Zm-68.93-39.09l-27.56-.06v10.1h16.34v43.33h11.22v-53.38Zm4.75,0v10.05h9.98v-10.05h-9.98Zm-4.77,57.78h-16.34v-43.33h-11.22v53.38l27.56.06v-10.1Zm-32.31,10.05v-10.05h-9.98v10.05h9.98ZM-14.24-44.27H-3.02v-53.38l-27.56-.06v10.1H-14.24v43.33ZM1.74-97.65v10.05h9.98v-10.05H1.74ZM-2.71-39.5h-16.34v-43.33h-11.22V-29.45l27.56.06v-10.1Zm-42.3,10.05h9.98v-10.05h-9.98v10.05Zm-1.57-29.64h11.22v-53.38l-27.56-.06v10.1h16.34v43.33Zm25.96-53.38h-9.98v10.05h9.98v-10.05Zm-14.43,58.15h-16.34v-43.33h-11.22v53.38l27.56.06v-10.1Zm-32.31,0h-9.98v10.05h9.98v-10.05ZM29.11-25.29H12.77v-43.33H1.55V-15.24l27.56.06v-10.1ZM-3.2-15.24v-10.05h-9.98v10.05H-3.2Zm32.33-14.45v-53.38l-27.56-.06v10.1h16.34V-29.69h11.22Zm14.74-43.33v-10.05h-9.98v10.05h9.98ZM-32.55,32.97h-16.34V-10.36h-11.22v53.38l27.56.06v-10.1Zm-42.3,10.05h9.98v-10.05h-9.98v10.05Zm30.77-14.82h11.22V-25.18l-27.56-.06v10.1h16.34V28.2ZM-18.12-25.18h-9.98v10.05h9.98v-10.05Zm1.57,29.64h-11.22v53.38l27.56.06v-10.1h-16.34V4.47Zm-25.96,53.38h9.98v-10.05h-9.98v10.05Zm30.77-14.82H-.51V-10.35l-27.56-.06V-.3H-11.74v43.33ZM14.22-10.35H4.24V-.3h9.98v-10.05Zm-106.46-18.99h16.34V13.99h11.22v-53.38l-27.56-.06v10.1Zm42.3,0v-10.05h-9.98v10.05h9.98Zm-31.1,4.4h-11.22V28.44l27.56.06v-10.1h-16.34V-24.94Zm-25.96,53.38h9.98v-10.05h-9.98v10.05ZM82.56-.17h11.22v-53.38l-27.56-.06v10.1h16.34V-.17Zm25.96-43.33v-10.05h-9.98v10.05h9.98Zm-14.43,48.1h-16.34v-43.33h-11.22V14.64l27.56.06V4.6Zm-42.3,10.05h9.98V4.6h-9.98v10.05Zm-1.57-29.64h11.22v-53.38l-27.56-.06v10.1h16.34V-15Zm25.96-53.38h-9.98v10.05h9.98v-10.05Zm-14.43,58.15h-16.34v-43.33h-11.22V-.19l27.56.06v-10.1ZM19.45-.19h9.98v-10.05h-9.98V-.19Zm90.12-24.34h-11.22V28.85l27.56.06v-10.1h-16.34V-24.53Zm-15.97,53.38v-10.05h-9.98v10.05h9.98Zm4.77-57.78h16.34V14.4h11.22v-53.38l-27.56-.06v10.1Zm32.31,0h9.98v-10.05h-9.98v10.05Zm-66.43,106h-16.34v-43.33h-11.22v53.38l27.56.06v-10.1Zm-42.3,10.05h9.98v-10.05h-9.98v10.05Zm30.77-14.82h11.22V18.92l-27.56-.06v10.1h16.34v43.33Zm25.96-53.38h-9.98v10.05h9.98v-10.05Zm1.57,29.64h-11.22v53.38l27.56.06v-10.1h-16.34v-43.33Zm-25.96,53.38h9.98v-10.05h-9.98v10.05Zm30.77-14.82h11.22v-53.38l-27.56-.06v10.1h16.34v43.33Zm15.97-43.33h9.98v-10.05h-9.98v10.05ZM4.56,14.75h16.34v43.33h11.22V4.71l-27.56-.06v10.1Zm42.3,0V4.71h-9.98v10.05h9.98Zm-31.1,4.4H4.53v53.38l27.56.06v-10.1H15.75V19.16Zm-25.96,53.38H-.22v-10.05h-9.98v10.05Z" fill="#1e276c"/></g></svg>