<?xml version="1.0" encoding="UTF-8"?><svg id="Layer_1" xmlns="http://www.w3.org/2000/svg" xmlns:xlink="http://www.w3.org/1999/xlink" viewBox="0 0 36 36"><defs><mask id="mask" x="-120" y="-148" width="266" height="312" maskUnits="userSpaceOnUse"><g id="mask0_980_7173"><rect width="36" height="36" rx="4" ry="4" fill="#fff"/></g></mask></defs><rect width="36" height="36" rx="4" ry="4" fill="#232d7c"/><g fill="none" mask="url(#mask)"><path d="m-2.88-135.15l23.96.05v46.26h-9.75v-37.56H-2.88v-8.75Zm36.77.05h-8.68v8.71h8.68v-8.71Zm-26.74,12.84H-2.61v46.26l23.96.05v-8.75H7.15v-37.56Zm-22.56,46.26H-6.74v-8.71h-8.68v8.71Zm-1.37-25.69H-7.03v-46.26l-23.96-.05v8.76h14.2v37.56Zm22.56-46.26H-2.9v8.71H5.78v-8.71Zm-26.74,12.84h-9.75v46.25l23.96.05v-8.76h-14.2v-37.56h0Zm-13.89,37.56h-8.68v8.71h8.68v-8.71Zm83.86,25.17h-14.2v-37.57h-9.75v46.26l23.96.05v-8.76h0Zm-36.77,0v8.71h8.68v-8.71h-8.68Zm27.04-3.82h9.75v-46.28l-23.96-.05v8.75h14.2v37.56h0Zm22.56-46.26h-8.68v8.71h8.68v-8.71ZM-18.78-59.45h-9.75V-13.19l23.96.05v-8.75h-14.2v-37.56Zm-13.89,46.26v-8.71h-8.68v8.71h8.68Zm3.86-50.4h14.2V-26.03H-4.85v-46.28l-23.96-.05v8.76h0Zm36.77-8.71H-.71v8.71H7.96v-8.71ZM23.54-9.04h-14.2v-37.56H-.42V-.33l23.96.05v-8.76ZM-13.23-.33H-4.55v-8.71h-8.68V-.33ZM-.69-50.73h14.2V-13.17h9.75v-46.26l-23.96-.05v8.76Zm36.77-8.71h-8.68v8.71h8.68v-8.71Zm-78.34,21.1h9.75v-46.26l-23.96-.05v8.76h14.2v37.56Zm13.89-46.26v8.71h8.68v-8.71h-8.68Zm-4.14,50.08h-14.2v-37.56h-9.75V-25.82l23.96.05v-8.76Zm-28.09,0h-8.68v8.71h8.68v-8.71Zm141.9-53.65h14.2v37.56h9.75v-46.26l-23.96-.05v8.76Zm36.77-8.71h-8.68v8.71h8.68v-8.71Zm-12.54,50.4h-14.2v-37.56h-9.75v46.26l23.96.05v-8.76Zm-36.77,8.71h8.68v-8.71h-8.68v8.71Zm-1.37-25.69h9.75v-46.26l-23.96-.05v8.76h14.2v37.56Zm22.56-46.26h-8.68v8.71h8.68v-8.71Zm-26.74,12.84h-9.75v46.26l23.96.05v-8.76h-14.2v-37.56Zm-22.56,46.26h8.68v-8.71h-8.68v8.71Zm78.34-21.1h-9.75V-25.47l23.96.05v-8.76h-14.2v-37.56Zm-13.89,46.26v-8.71h-8.68v8.71h8.68Zm4.14-50.08h14.2v37.56h9.75v-46.28l-23.96-.05v8.76h0Zm28.09-8.71v8.71h8.68v-8.71h-8.68ZM65.38-21.23h-9.75V25.03l23.96.05v-8.76h-14.2V-21.23Zm-13.89,46.26v-8.71h-8.68v8.71h8.68Zm3.86-50.4h14.2V12.19h9.75v-46.26l-23.96-.05v8.76Zm36.77-8.71h-8.68v8.71h8.68v-8.71Zm1.37,25.69h-9.75v46.26l23.96.05v-8.76h-14.2V-8.38Zm-22.56,46.26h8.68v-8.71h-8.68v8.71Zm26.74-12.84h9.75V-21.22l-23.96-.05v8.76h14.2V25.04Zm13.89-37.56h8.68v-8.71h-8.68v8.71Zm-59.92-33.87l-23.96-.05v8.76h14.2V-.13h9.75v-46.26Zm4.13,0v8.71h8.68v-8.71h-8.68ZM51.63,3.69h-14.2v-37.56h-9.75V12.4l23.96.05V3.69Zm-28.09,8.71V3.69h-8.68v8.71h8.68Zm-62.9,24.84h9.75V-9.03l-23.96-.05V-.32h14.2v37.56ZM-25.48-9.03V-.32h8.68v-8.71h-8.68Zm-3.86,50.4h-14.2V3.81h-9.75v46.26l23.96.05v-8.76Zm-36.77,8.71h8.68v-8.71h-8.68v8.71Zm-1.37-25.69h9.75V-21.88l-23.96-.05v8.76h14.2V24.38Zm22.56-46.26h-8.68v8.71h8.68v-8.71Zm-12.54,50.4h-14.2V-9.04h-9.75v46.26l23.96.05v-8.76Zm-28.09,0h-8.68v8.71h8.68v-8.71ZM-1.68,53.68h-14.2V16.13h-9.75v46.26l23.96.05v-8.76Zm-28.09,8.71v-8.71h-8.68v8.71h8.68ZM-1.67,49.87V3.6l-23.96-.05v8.76h14.2v37.56H-1.67ZM11.14,12.31V3.6H2.46v8.71h8.68ZM-55.28,104.18h-14.2v-37.56h-9.75v46.26l23.96.05v-8.75Zm-36.77,8.71h8.68v-8.71h-8.68v8.71Zm26.74-12.84h9.75v-46.26l-23.96-.05v8.76h14.2v37.56Zm22.56-46.26h-8.68v8.71h8.68v-8.71Zm1.37,25.69h-9.75v46.26l23.96.05v-8.76h-14.2v-37.56Zm-22.56,46.26h8.68v-8.71h-8.68v8.71Zm26.74-12.84h9.75v-46.26l-23.96-.05v8.76h14.2v37.56Zm22.56-46.26h-8.68v8.71h8.68v-8.71Zm-92.54-16.46h14.2v37.56h9.75v-46.26l-23.96-.05v8.76Zm36.77,0v-8.71h-8.68v8.71h8.68Zm-27.04,3.82h-9.75v46.26l23.96.05v-8.75h-14.2v-37.56Zm-22.56,46.26h8.68v-8.71h-8.68v8.71Zm164.78-24.8h9.75V29.19l-23.96-.05v8.75h14.2v37.56Zm22.56-37.56v-8.71h-8.68v8.71h8.68Zm-12.54,41.69h-14.2v-37.56h-9.75v46.26l23.96.05v-8.76Zm-36.77,8.71h8.68v-8.71h-8.68v8.71Zm-1.37-25.69h9.75V16.33l-23.96-.05v8.76h14.2v37.56Zm22.56-46.26h-8.68v8.71h8.68v-8.71Zm-12.54,50.4h-14.2V29.17H2.73v46.26l23.96.05v-8.76Zm-36.77,8.71H-1.4v-8.71h-8.68v8.71Zm78.34-21.1h-9.75v46.26l23.96.05v-8.76h-14.2v-37.56Zm-13.89,46.26v-8.71h-8.68v8.71h8.68Zm4.14-50.08h14.2v37.56h9.75v-46.26l-23.96-.05v8.76Zm28.09,0h8.68v-8.71h-8.68v8.71Zm-57.74,91.87h-14.2v-37.56H4.91v46.26l23.96.05v-8.75Zm-36.77,8.71H.78v-8.71H-7.9v8.71Zm26.74-12.84h9.75v-46.26l-23.96-.05v8.76h14.2v37.56Zm22.56-46.26h-8.68v8.71h8.68v-8.71Zm1.37,25.69h-9.75v46.26l23.96.05v-8.76h-14.2v-37.56Zm-22.56,46.26h8.68v-8.71h-8.68v8.71Zm26.74-12.84h9.75v-46.26l-23.96-.05v8.75h14.2v37.56Zm13.89-37.56h8.68v-8.71h-8.68v8.71Zm-83.86-25.17h14.2v37.56H.94v-46.26l-23.96-.05v8.76Zm36.77,0v-8.71H5.07v8.71h8.68Zm-27.04,3.82h-9.75v46.26l23.96.05v-8.76h-14.2v-37.56Zm-22.56,46.26h8.68v-8.71h-8.68v8.71Z" fill="#b3dfff"/></g></svg>