<?xml version="1.0" encoding="UTF-8"?><svg id="Layer_1" xmlns="http://www.w3.org/2000/svg" xmlns:xlink="http://www.w3.org/1999/xlink" viewBox="0 0 36 36"><defs><mask id="mask" x="-92" y="-210" width="292" height="344" maskUnits="userSpaceOnUse"><g id="mask0_980_7189"><rect width="36" height="36" rx="4" ry="4" fill="#fff"/></g></mask></defs><rect width="36" height="36" rx="4" ry="4" fill="#80c9ff"/><g fill="none" mask="url(#mask)"><path d="m36.57-195.83l26.3.05v51.01h-10.71v-41.41h-15.59v-9.65Zm40.36.05h-9.53v9.6h9.53v-9.6Zm-29.36,14.16h-10.71v51.01l26.3.05v-9.65h-15.59v-41.41Zm-24.77,51.01h9.53v-9.6h-9.53v9.6Zm-1.5-28.33h10.71v-51.01l-26.3-.05v9.65h15.59v41.41Zm24.77-51.01h-9.53v9.6h9.53v-9.6Zm-29.36,14.16H6v50.99l26.3.05v-9.65h-15.59v-41.41h0ZM1.47-154.38h-9.53v9.6H1.47v-9.6Zm92.06,27.75h-15.59v-41.42h-10.71v51.01l26.3.05v-9.65h0Zm-40.36,0v9.6h9.53v-9.6h-9.53Zm29.68-4.21h10.71v-51.02l-26.3-.05v9.65h15.59v41.41h0Zm24.77-51.01h-9.53v9.6h9.53v-9.6ZM19.11-112.37h-10.71v51.01l26.3.05v-9.65h-15.59v-41.41ZM3.87-61.36v-9.6H-5.66v9.6H3.87Zm4.24-55.57h15.59v41.41h10.71v-51.02l-26.3-.05v9.65h0Zm40.36-9.6h-9.53v9.6h9.53v-9.6Zm17.09,69.74h-15.59v-41.41h-10.71v51.01l26.3.05v-9.65Zm-40.36,9.6h9.53v-9.6h-9.53v9.6Zm13.77-55.57h15.59v41.41h10.71v-51.01l-26.3-.05v9.65Zm40.36-9.6h-9.53v9.6h9.53v-9.6ZM-6.66-89.1H4.05v-51.01l-26.3-.05v9.65H-6.66v41.41Zm15.24-51.01v9.6h9.53v-9.6h-9.53Zm-4.55,55.22h-15.59v-41.41h-10.71v51.01l26.3.05v-9.65Zm-30.83,0h-9.53v9.6h9.53v-9.6Zm155.77-59.15h15.59v41.41h10.71v-51.01l-26.3-.05v9.65Zm40.36-9.6h-9.53v9.6h9.53v-9.6Zm-13.77,55.57h-15.59v-41.41h-10.71v51.01l26.3.05v-9.65Zm-40.36,9.6h9.53v-9.6h-9.53v9.6Zm-1.5-28.33h10.71v-51.01l-26.3-.05v9.65h15.59v41.41Zm24.77-51.01h-9.53v9.6h9.53v-9.6Zm-29.36,14.16h-10.71v51.01l26.3.05v-9.65h-15.59v-41.41Zm-24.77,51.01h9.53v-9.6h-9.53v9.6Zm86-23.26h-10.71v51.01l26.3.05v-9.65h-15.59v-41.41Zm-15.24,51.01v-9.6h-9.53v9.6h9.53Zm4.55-55.22h15.59v41.41h10.71v-51.02l-26.3-.05v9.65h0Zm30.83-9.6v9.6h9.53v-9.6h-9.53Zm-78.98,69.48h-10.71V-19.23l26.3.05v-9.65h-15.59v-41.41Zm-15.24,51.01v-9.6h-9.53v9.6h9.53Zm4.24-55.57h15.59v41.41h10.71v-51.01l-26.3-.05v9.65Zm40.36-9.6h-9.53v9.6h9.53v-9.6Zm1.5,28.33h-10.71V-5.05l26.3.05v-9.65h-15.59v-41.41ZM117.59-5.05h9.53v-9.6h-9.53V-5.05Zm29.36-14.16h10.71v-51.01l-26.3-.05v9.65h15.59V-19.21Zm15.24-41.41h9.53v-9.6h-9.53v9.6Zm-65.77-37.35l-26.3-.05v9.65h15.59v41.41h10.71v-51.01Zm4.54,0v9.6h9.53v-9.6h-9.53Zm-4.55,55.22h-15.59v-41.41h-10.71v51.01l26.3.05v-9.65Zm-30.83,9.6v-9.6h-9.53v9.6h9.53ZM-3.48-5.77H7.23v-51.01l-26.3-.05v9.65H-3.48V-5.77Zm15.24-51.01v9.6h9.53v-9.6h-9.53ZM7.52-1.21h-15.59v-41.41h-10.71V8.39l26.3.05V-1.21Zm-40.36,9.6h9.53V-1.21h-9.53v9.6Zm-1.5-28.33h10.71v-51.01l-26.3-.05v9.65h15.59V-19.94Zm24.77-51.01h-9.53v9.6h9.53v-9.6ZM-23.34-15.38h-15.59v-41.41h-10.71V-5.78l26.3.05v-9.65Zm-30.83,0h-9.53V-5.78h9.53v-9.6ZM37.89,12.37h-15.59V-29.04h-10.71V21.97l26.3.05v-9.65ZM7.05,21.97v-9.6H-2.48v9.6H7.05Zm30.85-13.81v-51.01l-26.3-.05v9.65h15.59V8.16h10.71Zm14.06-41.41v-9.6h-9.53v9.6h9.53ZM-20.95,68.04h-15.59V26.63h-10.71v51.01l26.3.05v-9.65Zm-40.36,9.6h9.53v-9.6h-9.53v9.6Zm29.36-14.16h10.71V12.48l-26.3-.05v9.65h15.59v41.41ZM-7.19,12.48h-9.53v9.6H-7.19v-9.6Zm1.5,28.33h-10.71v51.01l26.3.05v-9.65H-5.68v-41.41Zm-24.77,51.01h9.53v-9.6h-9.53v9.6ZM-1.09,77.65h10.71V26.65l-26.3-.05v9.65H-1.09v41.41ZM23.68,26.65h-9.53v9.6h9.53v-9.6ZM-77.91,8.5h15.59v41.41h10.71V-1.1l-26.3-.05v9.65Zm40.36,0V-1.1h-9.53v9.6h9.53Zm-29.68,4.21h-10.71v51.01l26.3.05v-9.65h-15.59V12.71Zm-24.77,51.01h9.53v-9.6h-9.53v9.6Zm180.89-27.35h10.71V-14.64l-26.3-.05V-5.04h15.59v41.41ZM113.66-5.04v-9.6h-9.53V-5.04h9.53Zm-13.77,45.97h-15.59V-.48h-10.71v51.01l26.3.05v-9.65Zm-40.36,9.6h9.53v-9.6h-9.53v9.6Zm-1.5-28.33h10.71V-28.81l-26.3-.05v9.65h15.59V22.2Zm24.77-51.01h-9.53v9.6h9.53v-9.6Zm-13.77,55.57h-15.59V-14.65h-10.71v51.01l26.3.05v-9.65Zm-40.36,9.6h9.53v-9.6h-9.53v9.6ZM114.66,13.1h-10.71v51.01l26.3.05v-9.65h-15.59V13.1Zm-15.24,51.01v-9.6h-9.53v9.6h9.53Zm4.55-55.22h15.59v41.41h10.71V-.71l-26.3-.05v9.65Zm30.83,0h9.53V-.71h-9.53v9.6Zm-63.39,101.29h-15.59v-41.41h-10.71v51.01l26.3.05v-9.65Zm-40.36,9.6h9.53v-9.6h-9.53v9.6Zm29.36-14.16h10.71v-51.01l-26.3-.05v9.65h15.59v41.41Zm24.77-51.01h-9.53v9.6h9.53v-9.6Zm1.5,28.33h-10.71v51.01l26.3.05v-9.65h-15.59v-41.41Zm-24.77,51.01h9.53v-9.6h-9.53v9.6Zm29.36-14.16h10.71v-51.01l-26.3-.05v9.65h15.59v41.41Zm15.24-41.41h9.53v-9.6h-9.53v9.6ZM14.46,50.63h15.59v41.41h10.71v-51.01l-26.3-.05v9.65Zm40.36,0v-9.6h-9.53v9.6h9.53Zm-29.68,4.21h-10.71v51.01l26.3.05v-9.65h-15.59v-41.41ZM.37,105.85h9.53v-9.6H.37v9.6Z" fill="#1e276c"/></g></svg>