<?xml version="1.0" encoding="UTF-8"?><svg id="Layer_1" xmlns="http://www.w3.org/2000/svg" xmlns:xlink="http://www.w3.org/1999/xlink" viewBox="0 0 36 36"><defs><mask id="mask" x="-108" y="-163" width="292" height="344" maskUnits="userSpaceOnUse"><g id="mask0_980_12650"><rect width="36" height="36" rx="4" ry="4" fill="#fff"/></g></mask></defs><rect width="36" height="36" rx="4" ry="4" fill="#00960a"/><g fill="none" mask="url(#mask)"><path d="m20.57-148.83l26.3.05v51.01h-10.71v-41.41h-15.59v-9.65Zm40.36.05h-9.53v9.6h9.53v-9.6Zm-29.36,14.16h-10.71v51.01l26.3.05v-9.65h-15.59v-41.41ZM6.8-83.61h9.53v-9.6H6.8v9.6Zm-1.5-28.33h10.71v-51.01l-26.3-.05v9.65H5.3v41.41Zm24.77-51.01h-9.53v9.6h9.53v-9.6ZM.71-148.79h-10.71v50.99l26.3.05v-9.65H.71v-41.41h0Zm-15.24,41.41h-9.53v9.6h9.53v-9.6Zm92.06,27.75h-15.59v-41.42h-10.71v51.01l26.3.05v-9.65h0Zm-40.36,0v9.6h9.53v-9.6h-9.53Zm29.68-4.21h10.71v-51.02l-26.3-.05v9.65h15.59v41.41h0Zm24.77-51.01h-9.53v9.6h9.53v-9.6ZM3.11-65.37H-7.59V-14.36l26.3.05v-9.65H3.11v-41.41ZM-12.13-14.36v-9.6h-9.53v9.6h9.53Zm4.24-55.57H7.7V-28.52h10.71v-51.02l-26.3-.05v9.65h0Zm40.36-9.6h-9.53v9.6h9.53v-9.6ZM49.57-9.79h-15.59v-41.41h-10.71V-.19l26.3.05v-9.65ZM9.21-.19h9.53v-9.6h-9.53V-.19Zm13.77-55.57h15.59V-14.35h10.71v-51.01l-26.3-.05v9.65Zm40.36-9.6h-9.53v9.6h9.53v-9.6ZM-22.66-42.1h10.71v-51.01l-26.3-.05v9.65h15.59v41.41Zm15.24-51.01v9.6H2.11v-9.6H-7.42Zm-4.55,55.22h-15.59v-41.41h-10.71V-28.29l26.3.05v-9.65Zm-30.83,0h-9.53v9.6h9.53v-9.6Zm155.77-59.15h15.59v41.41h10.71v-51.01l-26.3-.05v9.65Zm40.36-9.6h-9.53v9.6h9.53v-9.6Zm-13.77,55.56h-15.59v-41.41h-10.71v51.01l26.3.05v-9.65Zm-40.36,9.6h9.53v-9.6h-9.53v9.6Zm-1.5-28.33h10.71v-51.01l-26.3-.05v9.65h15.59v41.41Zm24.77-51.01h-9.53v9.6h9.53v-9.6Zm-29.36,14.16h-10.71v51.01l26.3.05v-9.65h-15.59v-41.41Zm-24.77,51.01h9.53v-9.6h-9.53v9.6Zm86-23.26h-10.71V-27.9l26.3.05v-9.65h-15.59v-41.41Zm-15.24,51.01v-9.6h-9.53v9.6h9.53Zm4.55-55.22h15.59v41.41h10.71v-51.02l-26.3-.05v9.65h0Zm30.83-9.6v9.6h9.53v-9.6h-9.53ZM95.5-23.23h-10.71V27.77l26.3.05v-9.65h-15.59V-23.23Zm-15.24,51.01v-9.6h-9.53v9.6h9.53Zm4.24-55.57h15.59V13.62h10.71v-51.01l-26.3-.05v9.65Zm40.36-9.6h-9.53v9.6h9.53v-9.6Zm1.5,28.33h-10.71v51.01l26.3.05v-9.65h-15.59V-9.06Zm-24.77,51.01h9.53v-9.6h-9.53v9.6Zm29.36-14.16h10.71V-23.22l-26.3-.05v9.65h15.59V27.79Zm15.24-41.41h9.53v-9.6h-9.53v9.6Zm-65.77-37.35l-26.3-.05v9.65h15.59V.04h10.71v-51.01Zm4.54,0v9.6h9.53v-9.6h-9.53Zm-4.55,55.22h-15.59v-41.41h-10.71V13.85l26.3.05V4.25Zm-30.83,9.6V4.25h-9.53v9.6h9.53ZM-19.48,41.23h10.71V-9.77l-26.3-.05V-.18h15.59v41.41ZM-4.24-9.77V-.18H5.29v-9.6H-4.24Zm-4.24,55.57h-15.59V4.38h-10.71v51.01l26.3.05v-9.65Zm-40.36,9.6h9.53v-9.6h-9.53v9.6Zm-1.5-28.33h10.71V-23.95l-26.3-.05v9.65h15.59V27.06ZM-25.57-23.95h-9.53v9.6h9.53v-9.6Zm-13.77,55.57h-15.59V-9.79h-10.71v51.01l26.3.05v-9.65Zm-30.83,0h-9.53v9.6h9.53v-9.6ZM21.89,59.37H6.29V17.96H-4.41v51.01l26.3.05v-9.65Zm-30.83,9.6v-9.6h-9.53v9.6h9.53Zm30.85-13.81V4.15l-26.3-.05v9.65h15.59v41.41h10.71Zm14.06-41.41V4.15h-9.53v9.6h9.53ZM-36.95,115.04h-15.59v-41.41h-10.71v51.01l26.3.05v-9.65Zm-40.36,9.6h9.53v-9.6h-9.53v9.6Zm29.36-14.16h10.71v-51.01l-26.3-.05v9.65h15.59v41.41Zm24.77-51.01h-9.53v9.6h9.53v-9.6Zm1.5,28.33h-10.71v51.01l26.3.05v-9.65h-15.59v-41.41Zm-24.77,51.01h9.53v-9.6h-9.53v9.6Zm29.36-14.16H-6.39v-51.01l-26.3-.05v9.65h15.59v41.41ZM7.68,73.65H-1.85v9.6H7.68v-9.6Zm-101.59-18.15h15.59v41.41h10.71v-51.01l-26.3-.05v9.65Zm40.36,0v-9.6h-9.53v9.6h9.53Zm-29.68,4.21h-10.71v51.01l26.3.05v-9.65h-15.59v-41.41Zm-24.77,51.01h9.53v-9.6h-9.53v9.6Zm180.89-27.35h10.71v-51.01l-26.3-.05v9.65h15.59v41.41Zm24.77-41.41v-9.6h-9.53v9.6h9.53Zm-13.77,45.97h-15.59v-41.41h-10.71v51.01l26.3.05v-9.65Zm-40.36,9.6h9.53v-9.6h-9.53v9.6Zm-1.5-28.33h10.71V18.19l-26.3-.05v9.65h15.59v41.41Zm24.77-51.01h-9.53v9.6h9.53v-9.6Zm-13.77,55.57h-15.59v-41.41h-10.71v51.01l26.3.05v-9.65Zm-40.36,9.6h9.53v-9.6h-9.53v9.6Zm86-23.26h-10.71v51.01l26.3.05v-9.65h-15.59v-41.41Zm-15.24,51.01v-9.6h-9.53v9.6h9.53Zm4.55-55.22h15.59v41.41h10.71v-51.01l-26.3-.05v9.65Zm30.83,0h9.53v-9.6h-9.53v9.6Zm-63.39,101.29h-15.59v-41.41h-10.71v51.01l26.3.05v-9.65Zm-40.36,9.6h9.53v-9.6h-9.53v9.6Zm29.36-14.16h10.71v-51.01l-26.3-.05v9.65h15.59v41.41Zm24.77-51.01h-9.53v9.6h9.53v-9.6Zm1.5,28.33h-10.71v51.01l26.3.05v-9.65h-15.59v-41.41Zm-24.77,51.01h9.53v-9.6h-9.53v9.6Zm29.36-14.16h10.71v-51.01l-26.3-.05v9.65h15.59v41.41Zm15.24-41.41h9.53v-9.6h-9.53v9.6ZM-1.54,97.63h15.59v41.41h10.71v-51.01l-26.3-.05v9.65Zm40.36,0v-9.6h-9.53v9.6h9.53Zm-29.68,4.21H-1.57v51.01l26.3.05v-9.65h-15.59v-41.41Zm-24.77,51.01H-6.1v-9.6h-9.53v9.6Z" fill="#ddf8de"/></g></svg>