<?xml version="1.0" encoding="UTF-8"?><svg id="Layer_1" xmlns="http://www.w3.org/2000/svg" xmlns:xlink="http://www.w3.org/1999/xlink" viewBox="0 0 36 36"><defs><mask id="mask" x="-30" y="-168" width="292" height="344" maskUnits="userSpaceOnUse"><g id="mask0_980_12656"><rect width="36" height="36" rx="4" ry="4" fill="#fff"/></g></mask></defs><rect width="36" height="36" rx="4" ry="4" fill="#00ab01"/><g fill="none" mask="url(#mask)"><path d="m98.57-153.83l26.3.05v51.01h-10.71v-41.41h-15.59v-9.65Zm40.36.05h-9.53v9.6h9.53v-9.6Zm-29.36,14.16h-10.71v51.01l26.3.05v-9.65h-15.59v-41.41Zm-24.77,51.01h9.53v-9.6h-9.53v9.6Zm-1.5-28.33h10.71v-51.01l-26.3-.05v9.65h15.59v41.41Zm24.77-51.01h-9.53v9.6h9.53v-9.6Zm-29.36,14.16h-10.71v50.99l26.3.05v-9.65h-15.59v-41.41h0Zm-15.24,41.41h-9.53v9.6h9.53v-9.6Zm92.06,27.75h-15.59v-41.42h-10.71v51.01l26.3.05v-9.65h0Zm-40.36,0v9.6h9.53v-9.6h-9.53Zm29.68-4.21h10.71v-51.02l-26.3-.05v9.65h15.59v41.41h0Zm24.77-51.01h-9.53v9.6h9.53v-9.6Zm-88.5,69.48h-10.71V-19.36l26.3.05v-9.65h-15.59v-41.41Zm-15.24,51.01v-9.6h-9.53v9.6h9.53Zm4.24-55.57h15.59v41.41h10.71v-51.02l-26.3-.05v9.65h0Zm40.36-9.6h-9.53v9.6h9.53v-9.6ZM127.57-14.79h-15.59v-41.41h-10.71V-5.19l26.3.05v-9.65Zm-40.36,9.6h9.53v-9.6h-9.53V-5.19Zm13.77-55.57h15.59V-19.35h10.71v-51.01l-26.3-.05v9.65Zm40.36-9.6h-9.53v9.6h9.53v-9.6Zm-86,23.26h10.71v-51.01l-26.3-.05v9.65h15.59v41.41Zm15.24-51.01v9.6h9.53v-9.6h-9.53Zm-4.55,55.22h-15.59v-41.41h-10.71v51.01l26.3.05v-9.65Zm-30.83,0h-9.53v9.6h9.53v-9.6Zm155.77-59.15h15.59v41.41h10.71v-51.01l-26.3-.05v9.65Zm40.36-9.6h-9.53v9.6h9.53v-9.6Zm-13.77,55.56h-15.59v-41.41h-10.71v51.01l26.3.05v-9.65Zm-40.36,9.6h9.53v-9.6h-9.53v9.6Zm-1.5-28.33h10.71v-51.01l-26.3-.05v9.65h15.59v41.41Zm24.77-51.01h-9.53v9.6h9.53v-9.6Zm-29.36,14.16h-10.71v51.01l26.3.05v-9.65h-15.59v-41.41Zm-24.77,51.01h9.53v-9.6h-9.53v9.6Zm85.99-23.26h-10.71v51.01l26.3.05v-9.65h-15.59v-41.41Zm-15.24,51.01v-9.6h-9.53v9.6h9.53Zm4.55-55.22h15.59v41.41h10.71v-51.02l-26.3-.05v9.65h0Zm30.83-9.6v9.6h9.53v-9.6h-9.53ZM173.5-28.23h-10.71V22.77l26.3.05v-9.65h-15.59V-28.23Zm-15.24,51.01v-9.6h-9.53v9.6h9.53Zm4.24-55.57h15.59V8.62h10.71v-51.01l-26.3-.05v9.65Zm40.36-9.6h-9.53v9.6h9.53v-9.6Zm1.5,28.33h-10.71v51.01l26.3.05v-9.65h-15.59V-14.06Zm-24.77,51.01h9.53v-9.6h-9.53v9.6Zm29.36-14.16h10.71V-28.22l-26.3-.05v9.65h15.59V22.79Zm15.24-41.41h9.53v-9.6h-9.53v9.6Zm-65.77-37.35l-26.3-.05v9.65h15.59V-4.96h10.71v-51.01Zm4.54,0v9.6h9.53v-9.6h-9.53ZM158.4-.75h-15.59v-41.41h-10.71V8.85l26.3.05V-.75Zm-30.83,9.6V-.75h-9.53v9.6h9.53Zm-69.05,27.39h10.71V-14.77l-26.3-.05V-5.18h15.59v41.41Zm15.24-51.01V-5.18h9.53v-9.6h-9.53Zm-4.24,55.57h-15.59V-.62h-10.71v51.01l26.3.05v-9.65Zm-40.36,9.6h9.53v-9.6h-9.53v9.6Zm-1.5-28.33h10.71V-28.95l-26.3-.05v9.65h15.59V22.06Zm24.77-51.01h-9.53v9.6h9.53v-9.6Zm-13.77,55.57h-15.59V-14.79h-10.71v51.01l26.3.05v-9.65Zm-30.83,0H-1.7v9.6H7.83v-9.6Zm92.06,27.75h-15.59V12.96h-10.71v51.01l26.3.05v-9.65Zm-30.83,9.6v-9.6h-9.53v9.6h9.53Zm30.85-13.81V-.85l-26.3-.05v9.65h15.59v41.41h10.71Zm14.06-41.41V-.85h-9.53v9.6h9.53ZM41.05,110.04h-15.59v-41.41h-10.71v51.01l26.3.05v-9.65ZM.69,119.64h9.53v-9.6H.69v9.6Zm29.36-14.16h10.71v-51.01l-26.3-.05v9.65h15.59v41.41Zm24.77-51.01h-9.53v9.6h9.53v-9.6Zm1.5,28.33h-10.71v51.01l26.3.05v-9.65h-15.59v-41.41Zm-24.77,51.01h9.53v-9.6h-9.53v9.6Zm29.36-14.16h10.71v-51.01l-26.3-.05v9.65h15.59v41.41Zm24.77-51.01h-9.53v9.6h9.53v-9.6ZM-15.91,50.5H-.32v41.41h10.71v-51.01l-26.3-.05v9.65Zm40.36,0v-9.6h-9.53v9.6h9.53Zm-29.68,4.21h-10.71v51.01l26.3.05v-9.65H-5.23v-41.41Zm-24.77,51.01h9.53v-9.6h-9.53v9.6Zm180.89-27.35h10.71V27.36l-26.3-.05v9.65h15.59v41.41Zm24.77-41.41v-9.6h-9.53v9.6h9.53Zm-13.77,45.97h-15.59v-41.41h-10.71v51.01l26.3.05v-9.65Zm-40.36,9.6h9.53v-9.6h-9.53v9.6Zm-1.5-28.33h10.71V13.19l-26.3-.05v9.65h15.59v41.41Zm24.77-51.01h-9.53v9.6h9.53v-9.6Zm-13.77,55.57h-15.59V27.35h-10.71v51.01l26.3.05v-9.65Zm-40.36,9.6h9.53v-9.6h-9.53v9.6Zm86-23.26h-10.71v51.01l26.3.05v-9.65h-15.59v-41.41Zm-15.24,51.01v-9.6h-9.53v9.6h9.53Zm4.55-55.22h15.59v41.41h10.71v-51.01l-26.3-.05v9.65Zm30.83,0h9.53v-9.6h-9.53v9.6Zm-63.39,101.29h-15.59v-41.41h-10.71v51.01l26.3.05v-9.65Zm-40.36,9.6h9.53v-9.6h-9.53v9.6Zm29.36-14.16h10.71v-51.01l-26.3-.05v9.65h15.59v41.41Zm24.77-51.01h-9.53v9.6h9.53v-9.6Zm1.5,28.33h-10.71v51.01l26.3.05v-9.65h-15.59v-41.41Zm-24.77,51.01h9.53v-9.6h-9.53v9.6Zm29.36-14.16h10.71v-51.01l-26.3-.05v9.65h15.59v41.41Zm15.24-41.41h9.53v-9.6h-9.53v9.6Zm-92.06-27.75h15.59v41.41h10.71v-51.01l-26.3-.05v9.65Zm40.36,0v-9.6h-9.53v9.6h9.53Zm-29.68,4.21h-10.71v51.01l26.3.05v-9.65h-15.59v-41.41Zm-24.77,51.01h9.53v-9.6h-9.53v9.6Z" fill="#c4f2c6"/></g></svg>