<?xml version="1.0" encoding="UTF-8"?><svg id="Layer_1" xmlns="http://www.w3.org/2000/svg" xmlns:xlink="http://www.w3.org/1999/xlink" viewBox="0 0 36 36"><defs><mask id="mask" x="-149" y="-167" width="299" height="352" maskUnits="userSpaceOnUse"><g id="mask0_980_12652"><rect width="36" height="36" rx="4" ry="4" fill="#fff"/></g></mask></defs><rect width="36" height="36" rx="4" ry="4" fill="#008609"/><g fill="none" mask="url(#mask)"><path d="m-17.35-152.5l26.93.05v52.19H-1.38v-42.37h-15.97v-9.88Zm41.33.05h-9.76v9.82h9.76v-9.82Zm-30.06,14.49h-10.96v52.19l26.93.06v-9.88H-6.08v-42.37Zm-25.36,52.19h9.76v-9.82h-9.76v9.82Zm-1.54-28.99h10.96v-52.19l-26.93-.05v9.88h15.97v42.37Zm25.36-52.19h-9.76v9.82H-7.62v-9.82Zm-30.06,14.49h-10.96v52.18l26.93.06v-9.88h-15.97v-42.37h0Zm-15.61,42.37h-9.76v9.82h9.76v-9.82Zm94.27,28.39h-15.97v-42.39h-10.96v52.19l26.93.06v-9.88h0Zm-41.33,0v9.82h9.76v-9.82H-.35Zm30.39-4.31h10.96v-52.21l-26.93-.05v9.88h15.97v42.37h0Zm25.36-52.19h-9.75v9.82h9.75v-9.82ZM-35.22-67.1h-10.96V-14.9l26.93.06v-9.88h-15.97v-42.37Zm-15.61,52.19v-9.82h-9.76v9.82h9.76Zm4.34-56.86h15.97V-29.39h10.96v-52.21l-26.93-.06v9.88h0Zm41.33-9.82h-9.76v9.82H-5.16v-9.82ZM12.34-10.23H-3.62v-42.37h-10.96V-.4l26.93.06v-9.88ZM-28.99-.4h9.76v-9.82h-9.76V-.4Zm14.1-56.86H1.08V-14.89h10.96v-52.19l-26.93-.06v9.88Zm41.33-9.82h-9.76v9.82h9.76v-9.82Zm-88.06,23.8h10.96v-52.19l-26.93-.06v9.88h15.97v42.37Zm15.61-52.19v9.82h9.76v-9.82h-9.76Zm-4.66,56.5h-15.97v-42.37h-10.96V-29.16l26.93.06v-9.88Zm-31.57,0h-9.76v9.82h9.76v-9.82Zm159.5-60.53h15.97v42.37h10.96v-52.19l-26.93-.06v9.88Zm41.33-9.82h-9.76v9.82h9.76v-9.82Zm-14.1,56.86h-15.97v-42.37h-10.96v52.19l26.93.06v-9.88Zm-41.33,9.82h9.76v-9.82h-9.76v9.82Zm-1.54-28.99h10.96v-52.19l-26.93-.06v9.88h15.97v42.37Zm25.36-52.19h-9.76v9.82h9.76v-9.82Zm-30.06,14.49h-10.96v52.19l26.93.06v-9.88h-15.97v-42.37Zm-25.36,52.19h9.76v-9.82h-9.76v9.82Zm88.06-23.8h-10.96V-28.76l26.93.06v-9.88h-15.97v-42.37Zm-15.61,52.19v-9.82h-9.76v9.82h9.76Zm4.66-56.5h15.97v42.37h10.96v-52.21l-26.93-.06v9.88h0Zm31.57-9.82v9.82h9.76v-9.82h-9.76ZM59.37-23.98h-10.96V28.21l26.93.06v-9.88h-15.97V-23.98Zm-15.61,52.19v-9.82h-9.76v9.82h9.76Zm4.34-56.86h15.97V13.73h10.96v-52.19l-26.93-.06v9.88Zm41.33-9.82h-9.76v9.82h9.76v-9.82Zm1.54,28.99h-10.96v52.19l26.93.06v-9.88h-15.97V-9.48Zm-25.36,52.19h9.76v-9.82h-9.76v9.82Zm30.06-14.49h10.96V-23.97l-26.93-.06v9.88h15.97V28.23Zm15.61-42.37h9.76v-9.82h-9.76v9.82ZM43.93-52.36l-26.93-.06v9.88h15.97V-.17h10.96v-52.19Zm4.64,0v9.82h9.76v-9.82h-9.76Zm-4.66,56.5h-15.97v-42.37h-10.96V13.96l26.93.05V4.14ZM12.34,13.96V4.14H2.59v9.82h9.76Zm-70.7,28.02h10.96V-10.21l-26.93-.05V-.39h15.97v42.37Zm15.61-52.19V-.39h9.76v-9.82h-9.76Zm-4.34,56.86h-15.97V4.27h-10.96v52.19l26.93.06v-9.88Zm-41.33,9.82h9.76v-9.82h-9.76v9.82Zm-1.54-28.99h10.96V-24.71l-26.93-.06v9.88h15.97V27.48Zm25.36-52.19h-9.75v9.82h9.75v-9.82Zm-14.1,56.86h-15.97V-10.23h-10.96v52.19l26.93.06v-9.88Zm-31.57,0h-9.76v9.82h9.76v-9.82ZM-16,60.54h-15.97V18.17h-10.96v52.19l26.93.06v-9.88Zm-31.57,9.82v-9.82h-9.76v9.82h9.76Zm31.59-14.13V4.04l-26.93-.06v9.88h15.97v42.37h10.96ZM-1.59,13.86V4.04h-9.76v9.82H-1.59Zm-74.66,103.64h-15.97v-42.37h-10.96v52.19l26.93.06v-9.88Zm-41.33,9.82h9.76v-9.82h-9.76v9.82Zm30.06-14.49h10.96v-52.19l-26.93-.06v9.88h15.97v42.37Zm25.36-52.19h-9.76v9.82h9.76v-9.82Zm1.54,28.99h-10.96v52.19l26.93.06v-9.88h-15.97v-42.37Zm-25.36,52.19h9.76v-9.82h-9.76v9.82Zm30.06-14.49h10.96v-52.19l-26.93-.06v9.88h15.97v42.37Zm25.36-52.19h-9.76v9.82h9.76v-9.82Zm-104.02-18.57h15.96v42.37h10.96v-52.19l-26.93-.06v9.88Zm41.33,0v-9.82h-9.76v9.82h9.76Zm-30.39,4.31h-10.96v52.19l26.93.06v-9.88h-15.97v-42.37Zm-25.36,52.19h9.76v-9.82h-9.76v9.82Zm185.22-27.98h10.96v-52.19l-26.93-.06v9.88h15.97v42.37Zm25.36-42.37v-9.82h-9.76v9.82h9.76Zm-14.1,47.04h-15.97v-42.37h-10.96v52.19l26.93.06v-9.88Zm-41.33,9.82h9.76v-9.82H6.16v9.82Zm-1.54-28.99h10.96V18.4l-26.93-.06v9.88H4.62v42.37ZM29.99,18.4h-9.76v9.82h9.76v-9.82Zm-14.1,56.86H-.08v-42.37h-10.96v52.19l26.93.06v-9.88Zm-41.33,9.82h9.76v-9.82h-9.76v9.82Zm88.06-23.8h-10.96v52.19l26.93.06v-9.88h-15.97v-42.37Zm-15.61,52.19v-9.82h-9.76v9.82h9.76Zm4.66-56.5h15.97v42.37h10.96v-52.19l-26.93-.06v9.88Zm31.57,0h9.76v-9.82h-9.76v9.82ZM18.33,160.62H2.37v-42.37h-10.96v52.19l26.93.05v-9.88Zm-41.33,9.82h9.76v-9.82h-9.76v9.82Zm30.06-14.49h10.96v-52.19l-26.93-.06v9.88H7.07v42.37Zm25.36-52.19h-9.76v9.82h9.76v-9.82Zm1.54,28.99h-10.96v52.19l26.93.05v-9.88h-15.97v-42.37Zm-25.36,52.19h9.76v-9.82h-9.76v9.82Zm30.06-14.49h10.96v-52.19l-26.93-.06v9.88h15.97v42.37Zm15.61-42.37h9.76v-9.82h-9.76v9.82Zm-94.27-28.39h15.97v42.37h10.96v-52.19l-26.93-.06v9.88Zm41.33,0v-9.82h-9.76v9.82H1.34Zm-30.39,4.31h-10.96v52.19l26.93.06v-9.88h-15.97v-42.37Zm-25.36,52.19h9.76v-9.82h-9.76v9.82Z" fill="#c4f2c6"/></g></svg>