<?xml version="1.0" encoding="UTF-8"?><svg id="Layer_1" xmlns="http://www.w3.org/2000/svg" xmlns:xlink="http://www.w3.org/1999/xlink" viewBox="0 0 36 36"><defs><mask id="mask" x="-30" y="-219" width="292" height="344" maskUnits="userSpaceOnUse"><g id="mask0_980_12664"><rect width="36" height="36" rx="4" ry="4" fill="#fff"/></g></mask></defs><rect width="36" height="36" rx="4" ry="4" fill="#c4f2c6"/><g fill="none" mask="url(#mask)"><path d="m98.57-204.83l26.3.05v51.01h-10.71v-41.41h-15.59v-9.65Zm40.36.05h-9.53v9.6h9.53v-9.6Zm-29.36,14.16h-10.71v51.01l26.3.05v-9.65h-15.59v-41.41Zm-24.77,51.01h9.53v-9.6h-9.53v9.6Zm-1.5-28.33h10.71v-51.01l-26.3-.05v9.65h15.59v41.41Zm24.77-51.01h-9.53v9.6h9.53v-9.6Zm-29.36,14.16h-10.71v50.99l26.3.05v-9.65h-15.59v-41.41h0Zm-15.24,41.41h-9.53v9.6h9.53v-9.6Zm92.06,27.75h-15.59v-41.42h-10.71v51.01l26.3.05v-9.65h0Zm-40.36,0v9.6h9.53v-9.6h-9.53Zm29.68-4.21h10.71v-51.02l-26.3-.05v9.65h15.59v41.41h0Zm24.77-51.01h-9.53v9.6h9.53v-9.6Zm-88.5,69.48h-10.71v51.01l26.3.05v-9.65h-15.59v-41.41Zm-15.24,51.01v-9.6h-9.53v9.6h9.53Zm4.24-55.57h15.59v41.41h10.71v-51.02l-26.3-.05v9.65h0Zm40.36-9.6h-9.53v9.6h9.53v-9.6Zm17.09,69.74h-15.59v-41.41h-10.71v51.01l26.3.05v-9.65Zm-40.36,9.6h9.53v-9.6h-9.53v9.6Zm13.77-55.57h15.59v41.41h10.71v-51.01l-26.3-.05v9.65Zm40.36-9.6h-9.53v9.6h9.53v-9.6Zm-86,23.26h10.71v-51.01l-26.3-.05v9.65h15.59v41.41Zm15.24-51.01v9.6h9.53v-9.6h-9.53Zm-4.55,55.22h-15.59v-41.41h-10.71v51.01l26.3.05v-9.65Zm-30.83,0h-9.53v9.6h9.53v-9.6Zm155.77-59.15h15.59v41.41h10.71v-51.01l-26.3-.05v9.65Zm40.36-9.6h-9.53v9.6h9.53v-9.6Zm-13.77,55.57h-15.59v-41.41h-10.71v51.01l26.3.05v-9.65Zm-40.36,9.6h9.53v-9.6h-9.53v9.6Zm-1.5-28.33h10.71v-51.01l-26.3-.05v9.65h15.59v41.41Zm24.77-51.01h-9.53v9.6h9.53v-9.6Zm-29.36,14.16h-10.71v51.01l26.3.05v-9.65h-15.59v-41.41Zm-24.77,51.01h9.53v-9.6h-9.53v9.6Zm85.99-23.26h-10.71v51.01l26.3.05v-9.65h-15.59v-41.41Zm-15.24,51.01v-9.6h-9.53v9.6h9.53Zm4.55-55.22h15.59v41.41h10.71v-51.02l-26.3-.05v9.65h0Zm30.83-9.6v9.6h9.53v-9.6h-9.53Zm-78.98,69.48h-10.71V-28.23l26.3.05v-9.65h-15.59v-41.41Zm-15.24,51.01v-9.6h-9.53v9.6h9.53Zm4.24-55.57h15.59v41.41h10.71v-51.01l-26.3-.05v9.65Zm40.36-9.6h-9.53v9.6h9.53v-9.6Zm1.5,28.33h-10.71V-14.05l26.3.05v-9.65h-15.59v-41.41Zm-24.77,51.01h9.53v-9.6h-9.53v9.6Zm29.36-14.16h10.71v-51.01l-26.3-.05v9.65h15.59V-28.21Zm15.24-41.41h9.53v-9.6h-9.53v9.6Zm-65.77-37.35l-26.3-.05v9.65h15.59v41.41h10.71v-51.01Zm4.54,0v9.6h9.53v-9.6h-9.53Zm-4.55,55.22h-15.59v-41.41h-10.71v51.01l26.3.05v-9.65Zm-30.83,9.6v-9.6h-9.53v9.6h9.53ZM58.52-14.77h10.71v-51.01l-26.3-.05v9.65h15.59V-14.77Zm15.24-51.01v9.6h9.53v-9.6h-9.53Zm-4.24,55.57h-15.59v-41.41h-10.71V-.61l26.3.05v-9.65ZM27.66-28.94h10.71v-51.01l-26.3-.05v9.65h15.59V-28.94Zm24.77-51.01h-9.53v9.6h9.53v-9.6Zm-13.77,55.57h-15.59v-41.41h-10.71V-14.78l26.3.05v-9.65Zm-30.83,0H-1.7v9.6H7.83v-9.6ZM99.89,3.37h-15.59v-41.41h-10.71V12.97l26.3.05V3.37Zm-30.83,9.6V3.37h-9.53v9.6h9.53ZM99.9-.84v-51.01l-26.3-.05v9.65h15.59V-.84h10.71Zm14.06-41.41v-9.6h-9.53v9.6h9.53ZM41.05,59.04h-15.59V17.63h-10.71v51.01l26.3.05v-9.65ZM.69,68.64h9.53v-9.6H.69v9.6Zm29.36-14.16h10.71V3.48l-26.3-.05v9.65h15.59v41.41ZM54.81,3.48h-9.53v9.6h9.53V3.48Zm1.5,28.33h-10.71v51.01l26.3.05v-9.65h-15.59V31.8Zm-24.77,51.01h9.53v-9.6h-9.53v9.6Zm29.36-14.16h10.71V17.65l-26.3-.05v9.65h15.59v41.41Zm24.77-51.01h-9.53v9.6h9.53v-9.6ZM-15.91-.5H-.32v41.41h10.71V-10.1l-26.3-.05V-.5ZM-5.23,3.71h-10.71v51.01l26.3.05v-9.65H-5.23V3.71Zm-24.77,51.01h9.53v-9.6h-9.53v9.6Zm180.89-27.35h10.71V-23.64l-26.3-.05v9.65h15.59V27.37Zm24.77-41.41v-9.6h-9.53v9.6h9.53Zm-13.77,45.97h-15.59V-9.48h-10.71v51.01l26.3.05v-9.65Zm-40.36,9.6h9.53v-9.6h-9.53v9.6Zm-1.5-28.33h10.71v-51.01l-26.3-.05v9.65h15.59V13.2Zm24.77-51.01h-9.53v9.6h9.53v-9.6Zm-13.77,55.57h-15.59V-23.65h-10.71V27.35l26.3.05v-9.65Zm-40.36,9.6h9.53v-9.6h-9.53v9.6ZM176.66,4.1h-10.71v51.01l26.3.05v-9.65h-15.59V4.1Zm-15.24,51.01v-9.6h-9.53v9.6h9.53ZM165.97-.11h15.59v41.41h10.71V-9.71l-26.3-.05V-.11Zm30.83,0h9.53v-9.6h-9.53V-.11Zm-63.39,101.29h-15.59v-41.41h-10.71v51.01l26.3.05v-9.65Zm-40.36,9.6h9.53v-9.6h-9.53v9.6Zm29.36-14.16h10.71v-51.01l-26.3-.05v9.65h15.59v41.41Zm24.77-51.01h-9.53v9.6h9.53v-9.6Zm1.5,28.33h-10.71v51.01l26.3.05v-9.65h-15.59v-41.41Zm-24.77,51.01h9.53v-9.6h-9.53v9.6Zm29.36-14.16h10.71v-51.01l-26.3-.05v9.65h15.59v41.41Zm15.24-41.41h9.53v-9.6h-9.53v9.6Zm-92.06-27.75h15.59v41.41h10.71v-51.01l-26.3-.05v9.65Zm40.36,0v-9.6h-9.53v9.6h9.53Zm-29.68,4.21h-10.71v51.01l26.3.05v-9.65h-15.59v-41.41Zm-24.77,51.01h9.53v-9.6h-9.53v9.6Z" fill="#008609"/></g></svg>